<?xml version="1.0" encoding="UTF-8"?>
<svg version="1.1" xmlns="http://www.w3.org/2000/svg" width="223" height="59">
<path d="M0 0 C1.23556641 0.01740234 1.23556641 0.01740234 2.49609375 0.03515625 C3.32238281 0.04417969 4.14867187 0.05320313 5 0.0625 C5.63808594 0.07410156 6.27617187 0.08570313 6.93359375 0.09765625 C8.15996945 2.55040766 8.04774689 4.14823435 8.03125 6.88671875 C8.02802734 7.82773438 8.02480469 8.76875 8.02148438 9.73828125 C8.01310547 10.723125 8.00472656 11.70796875 7.99609375 12.72265625 C7.99158203 13.71523437 7.98707031 14.7078125 7.98242188 15.73046875 C7.9706152 18.18625785 7.95414775 20.64192729 7.93359375 23.09765625 C20.98564143 22.44330718 20.98564143 22.44330718 31.93359375 16.09765625 C35.82612707 11.36763849 36.84165248 6.01233813 37.93359375 0.09765625 C41.23359375 0.09765625 44.53359375 0.09765625 47.93359375 0.09765625 C49.55357262 6.41557385 48.67273778 11.86927451 45.6015625 17.5703125 C43.55300965 20.7598315 41.80305961 23.45097168 38.73828125 25.73046875 C38.14273438 26.18164062 37.5471875 26.6328125 36.93359375 27.09765625 C36.93359375 27.75765625 36.93359375 28.41765625 36.93359375 29.09765625 C37.65546875 29.63390625 38.37734375 30.17015625 39.12109375 30.72265625 C45.2550718 35.90245994 47.90111673 42.24501414 48.93359375 50.09765625 C49.24760638 54.3368268 49.32450171 55.51129431 46.93359375 59.09765625 C40.80859375 59.53515625 40.80859375 59.53515625 37.93359375 58.09765625 C37.40122632 56.05301432 36.95715805 53.98503509 36.55859375 51.91015625 C35.27698072 46.13974091 34.22361998 41.72285853 29.42578125 37.89453125 C22.99236914 33.93979307 15.25996368 34.28844713 7.93359375 34.09765625 C7.94406738 34.7839209 7.95454102 35.47018555 7.96533203 36.17724609 C8.00681249 39.27567914 8.03289444 42.37405386 8.05859375 45.47265625 C8.07535156 46.55289063 8.09210938 47.633125 8.109375 48.74609375 C8.11582031 49.77734375 8.12226563 50.80859375 8.12890625 51.87109375 C8.13937988 52.82419434 8.14985352 53.77729492 8.16064453 54.75927734 C7.93359375 57.09765625 7.93359375 57.09765625 5.93359375 59.09765625 C2.43359375 59.34765625 2.43359375 59.34765625 -1.06640625 59.09765625 C-3.06640625 57.09765625 -3.06640625 57.09765625 -3.31364441 54.73789978 C-3.31221939 53.75052322 -3.31079437 52.76314667 -3.30932617 51.74584961 C-3.3124028 50.62806625 -3.31547943 49.5102829 -3.31864929 48.35862732 C-3.31146378 47.1471553 -3.30427826 45.93568329 -3.296875 44.6875 C-3.29641678 43.44972305 -3.29595856 42.21194611 -3.29548645 40.93666077 C-3.29168485 37.64407578 -3.27866449 34.35168266 -3.26202393 31.05914307 C-3.24856789 27.70413978 -3.25174809 24.34916995 -3.25195312 20.99414062 C-3.24703793 18.45442508 -3.2412096 15.9147111 -3.234375 13.375 C-3.23326218 12.16150375 -3.23214935 10.94800751 -3.23100281 9.69773865 C-3.22462296 8.58310745 -3.2182431 7.46847626 -3.21166992 6.32006836 C-3.20785812 5.3334874 -3.20404633 4.34690643 -3.20011902 3.33042908 C-3.02612524 0.42503274 -2.90813554 0.13743552 0 0 Z " fill="#313233" transform="translate(174.06640625,-0.09765625)"/>
<path d="M0 0 C7.62858608 4.54210867 12.08842866 9.98078179 15.2109375 18.31640625 C16.71867525 24.39249508 16.39694606 30.61077389 16.39624023 36.82836914 C16.39844115 39.00751875 16.41666675 41.18617321 16.43554688 43.36523438 C16.43847851 44.74869619 16.44046484 46.1321604 16.44140625 47.515625 C16.44551514 48.77205811 16.44962402 50.02849121 16.45385742 51.32299805 C16.2109375 54.31640625 16.2109375 54.31640625 14.2109375 56.31640625 C10.7109375 56.56640625 10.7109375 56.56640625 7.2109375 56.31640625 C4.41250746 53.51797621 4.94250492 51.72027035 4.90234375 47.8046875 C4.87720703 46.48919922 4.85207031 45.17371094 4.82617188 43.81835938 C4.79756525 41.72958652 4.77354593 39.64088524 4.75463867 37.55200195 C4.73278555 35.53166847 4.69331245 33.51221126 4.65234375 31.4921875 C4.63888916 30.28473877 4.62543457 29.07729004 4.61157227 27.83325195 C3.9242748 21.80002827 1.54539614 16.65086489 -2.7890625 12.31640625 C-8.52173025 8.92360289 -14.20770302 8.31407277 -20.7890625 9.31640625 C-26.46434775 11.5297675 -29.87573239 14.95587885 -32.7890625 20.31640625 C-33.95106184 23.80240426 -33.96589696 26.64350725 -34.03515625 30.3203125 C-34.06807506 31.71419945 -34.10128702 33.10807951 -34.13476562 34.50195312 C-34.18229623 36.69648806 -34.22677775 38.89099118 -34.26586914 41.08569336 C-34.30548716 43.20585052 -34.35703118 45.3254569 -34.41015625 47.4453125 C-34.4352124 48.7144751 -34.46026855 49.9836377 -34.48608398 51.29125977 C-34.7890625 54.31640625 -34.7890625 54.31640625 -36.7890625 56.31640625 C-40.2890625 56.56640625 -40.2890625 56.56640625 -43.7890625 56.31640625 C-47.2867369 52.81873185 -46.12818022 47.62802425 -46.16015625 42.8984375 C-46.15999512 42.1451416 -46.15983398 41.3918457 -46.15966797 40.61572266 C-46.16399371 38.35239701 -46.20016071 36.09109906 -46.23828125 33.828125 C-46.32943021 22.31933656 -44.68928366 13.57788748 -36.58203125 5.00390625 C-26.83881466 -4.16617995 -12.02908297 -5.73479537 0 0 Z " fill="#313233" transform="translate(147.7890625,2.68359375)"/>
<path d="M0 0 C2.7427508 -0.47114738 5.19558897 -0.17805784 8 0 C10.40512172 2.40512172 9.92589437 8.12565423 10.3046875 11.38671875 C11.62640326 18.25518546 14.35898506 21.93846924 20 26 C24.80974374 28.65801628 29.84994458 28.69161733 35.1171875 27.53515625 C41.08880718 25.63099828 43.85819051 22.52411207 47.1015625 17.1875 C48.6096436 13.51565038 48.46211258 9.70377301 48.65625 5.77734375 C49 3 49 3 51 0 C53.7427508 -0.47114738 56.19558897 -0.17805784 59 0 C61.22219326 2.22219326 60.31163547 7.63008706 60.31469727 10.7109375 C60.14789004 19.58626658 57.08932222 25.69889609 51.06640625 32.203125 C46.36146865 36.29437509 41.25342085 39 35 39 C35.02320313 40.27617188 35.04640625 41.55234375 35.0703125 42.8671875 C35.08906829 44.5364525 35.10726869 46.2057238 35.125 47.875 C35.14175781 48.71675781 35.15851563 49.55851562 35.17578125 50.42578125 C35.18544922 51.63427734 35.18544922 51.63427734 35.1953125 52.8671875 C35.21102295 53.98262939 35.21102295 53.98262939 35.22705078 55.12060547 C35 57 35 57 33 59 C29.5 59.25 29.5 59.25 26 59 C24 57 24 57 23.77294922 55.12060547 C23.78342285 54.37697754 23.79389648 53.63334961 23.8046875 52.8671875 C23.81113281 52.06152344 23.81757812 51.25585938 23.82421875 50.42578125 C23.84097656 49.58402344 23.85773437 48.74226563 23.875 47.875 C23.88402344 47.02550781 23.89304687 46.17601562 23.90234375 45.30078125 C23.92594353 43.20040116 23.96181517 41.10016556 24 39 C22.93910156 38.88914063 21.87820312 38.77828125 20.78515625 38.6640625 C13.44633286 37.37654963 7.73533008 32.5516491 3.21484375 26.75390625 C-1.73973869 19.60082742 -2.21056178 11.54279218 -2 3 C-1.34 2.01 -0.68 1.02 0 0 Z " fill="#313233" transform="translate(39,0)"/>
<path d="M0 0 C1.23556641 0.01740234 1.23556641 0.01740234 2.49609375 0.03515625 C3.32238281 0.04417969 4.14867187 0.05320313 5 0.0625 C5.63808594 0.07410156 6.27617187 0.08570313 6.93359375 0.09765625 C8.12054793 2.47156461 8.05435208 3.90010576 8.04711914 6.54736328 C8.04704361 7.46816681 8.04696808 8.38897034 8.04689026 9.337677 C8.04172897 10.33354828 8.03656769 11.32941956 8.03125 12.35546875 C8.02983505 13.37365692 8.0284201 14.39184509 8.02696228 15.44088745 C8.02135275 18.7015066 8.00879863 21.96205776 7.99609375 25.22265625 C7.99107998 27.42968651 7.98651686 29.63671784 7.98242188 31.84375 C7.97138023 37.26174206 7.9546328 42.6796943 7.93359375 48.09765625 C8.63967773 48.0819458 9.34576172 48.06623535 10.07324219 48.05004883 C13.27661104 47.98763528 16.47985187 47.94864514 19.68359375 47.91015625 C20.79476563 47.88501953 21.9059375 47.85988281 23.05078125 47.83398438 C24.12070312 47.82431641 25.190625 47.81464844 26.29296875 47.8046875 C27.27749023 47.78897705 28.26201172 47.7732666 29.27636719 47.75708008 C32.3685808 48.15340845 33.7175498 48.93543419 35.93359375 51.09765625 C36.43359375 53.59765625 36.43359375 53.59765625 35.93359375 56.09765625 C33.45706239 58.72101753 32.00454819 59.09055059 28.37426758 59.45410156 C26.96303567 59.46035584 25.55166327 59.44998069 24.140625 59.42578125 C23.39399094 59.42390808 22.64735687 59.42203491 21.87809753 59.42010498 C20.30548615 59.41339932 18.73289104 59.3995143 17.16040039 59.37890625 C14.74414708 59.34763105 12.32854543 59.337922 9.91210938 59.33203125 C8.38410657 59.32286577 6.85611043 59.31249146 5.328125 59.30078125 C4.60212601 59.29653137 3.87612701 59.29228149 3.12812805 59.28790283 C-1.94921552 59.21484698 -1.94921552 59.21484698 -3.06640625 58.09765625 C-3.16534403 56.32319616 -3.19439717 54.54479374 -3.19580078 52.76757812 C-3.19895294 51.62969849 -3.2021051 50.49181885 -3.20535278 49.31945801 C-3.20332855 48.08095093 -3.20130432 46.84244385 -3.19921875 45.56640625 C-3.20017548 44.30501831 -3.2011322 43.04363037 -3.20211792 41.74401855 C-3.2028 39.07068487 -3.20144154 36.39744188 -3.19677734 33.72412109 C-3.19108006 30.29058934 -3.19435926 26.85713575 -3.20034981 23.42360687 C-3.20482387 20.15870382 -3.20169508 16.89381032 -3.19921875 13.62890625 C-3.20124298 12.39039917 -3.20326721 11.15189209 -3.20535278 9.87585449 C-3.20220062 8.73797485 -3.19904846 7.60009521 -3.19580078 6.42773438 C-3.19500519 5.42037231 -3.19420959 4.41301025 -3.19338989 3.37512207 C-3.02973078 0.43987757 -2.93552165 0.13872976 0 0 Z " fill="#313233" transform="translate(3.06640625,-0.09765625)"/>
<path d="M0 0 C2.69105198 2.17574416 4.45532928 3.91065856 6 7 C6.24108953 10.82825869 6.18519253 14.66499262 6.1875 18.5 C6.19974609 19.57121094 6.21199219 20.64242187 6.22460938 21.74609375 C6.22750977 23.27943359 6.22750977 23.27943359 6.23046875 24.84375 C6.23457764 25.78412109 6.23868652 26.72449219 6.24291992 27.69335938 C6 30 6 30 4 32 C1.29368306 32.1720611 -1.2971394 32.23239017 -4 32.1875 C-4.73734375 32.18685547 -5.4746875 32.18621094 -6.234375 32.18554688 C-11.71898191 32.14050904 -11.71898191 32.14050904 -14 31 C-14.11638426 26.93774179 -14.18731373 22.8759137 -14.25 18.8125 C-14.28351563 17.66201172 -14.31703125 16.51152344 -14.3515625 15.32617188 C-14.36445312 14.21435547 -14.37734375 13.10253906 -14.390625 11.95703125 C-14.41157227 10.93585205 -14.43251953 9.91467285 -14.45410156 8.86254883 C-13.88121902 5.25123283 -12.50385825 3.61065927 -10 1 C-6.78305636 -0.60847182 -3.47862778 -0.61309149 0 0 Z " fill="#29B47C" transform="translate(137,27)"/>
</svg>
