<?xml version="1.0" encoding="UTF-8"?>
<svg version="1.1" xmlns="http://www.w3.org/2000/svg" width="1679" height="441">
<path d="M0 0 C20.45298474 -0.02332725 40.90596679 -0.04097832 61.35896206 -0.05181217 C70.85495383 -0.0569755 80.35093735 -0.06401889 89.84692383 -0.07543945 C98.12052845 -0.08538517 106.39412711 -0.09185316 114.66773754 -0.09408849 C119.0513359 -0.09539579 123.43491716 -0.09848285 127.81851006 -0.10573006 C131.939635 -0.11248851 136.06073573 -0.11461732 140.18186569 -0.11310768 C141.69886341 -0.11338409 143.2158619 -0.11539025 144.73285484 -0.11920547 C146.79507301 -0.12414001 148.85719826 -0.1229992 150.91941833 -0.12025452 C152.07626853 -0.12117631 153.23311872 -0.1220981 154.42502499 -0.12304783 C157 0 157 0 158 1 C160.05957544 1.19635331 162.11997145 1.3861765 164.18286133 1.54394531 C191.92596905 3.71785516 220.11440108 12.48646376 238.83984375 34.1796875 C253.08426997 51.58779292 258.66165925 72.66972334 256.60546875 94.91796875 C256.16735533 98.96123583 255.61569362 102.98018213 255 107 C255.72445313 107.51949219 256.44890625 108.03898437 257.1953125 108.57421875 C258.16210938 109.27160156 259.12890625 109.96898438 260.125 110.6875 C261.07632812 111.37199219 262.02765625 112.05648437 263.0078125 112.76171875 C277.77430822 123.80767443 285.71665749 138.96345377 289 157 C289.43074786 162.16932058 289.48386537 167.31636716 289.4375 172.5 C289.43512329 173.20043427 289.43274658 173.90086853 289.43029785 174.62252808 C289.36757494 186.47260504 288.04869766 197.54146852 285 209 C284.66987218 210.37290743 284.34296251 211.74659333 284.01953125 213.12109375 C282.05039138 221.10213821 279.45251095 228.54527663 276 236 C275.24589844 237.66482422 275.24589844 237.66482422 274.4765625 239.36328125 C270.22904315 248.32694298 265.07292483 256.18445327 259 264 C258.36449219 264.82242187 257.72898437 265.64484375 257.07421875 266.4921875 C236.81747154 290.86968628 204.53553039 301.81840725 174 305 C167.11167156 305.49510246 160.20746242 305.65987555 153.30322266 305.72436523 C142.05836537 305.56960197 142.05836537 305.56960197 132.125 310.16796875 C129.65755743 313.45638026 128.73955378 316.35319841 128 320.3125 C127.84394287 321.0761084 127.68788574 321.8397168 127.52709961 322.62646484 C125.17676005 334.57909541 123.46764948 346.66096745 121.64990234 358.70410156 C119.8215846 370.81132158 117.92620555 382.90800277 116 395 C115.77981201 396.41007324 115.77981201 396.41007324 115.55517578 397.84863281 C115.19821644 400.11040484 114.82297105 402.36794396 114.4375 404.625 C114.25058594 405.75164062 114.06367188 406.87828125 113.87109375 408.0390625 C112.01866414 414.3356618 108.66508022 417.86472414 103 421 C100.21661316 421.38959503 97.83032364 421.56845558 95.05444336 421.54931641 C94.28131302 421.55953827 93.50818268 421.56976013 92.71162415 421.58029175 C90.1707108 421.60796278 87.63088929 421.60618114 85.08984375 421.6015625 C83.31677348 421.60934124 81.54370691 421.61801158 79.77064514 421.62753296 C76.06108494 421.64242974 72.35190557 421.64189402 68.64233398 421.63134766 C63.89158463 421.61974035 59.14239028 421.65367178 54.39189816 421.700037 C50.73294487 421.72951183 47.0743666 421.73125574 43.41531563 421.72501755 C41.66382318 421.72604333 39.91230956 421.73650714 38.16093254 421.75664139 C35.71164798 421.7813521 33.26539888 421.76781169 30.81616211 421.74462891 C30.09550568 421.75991638 29.37484924 421.77520386 28.63235474 421.79095459 C24.65584313 421.70785894 23.06774859 421.05772925 20.01148987 418.45346069 C16.41848571 412.28475022 17.9642587 406.21444782 19.09375 399.4375 C19.26022034 398.42236328 19.26022034 398.42236328 19.43005371 397.38671875 C19.78073075 395.25677172 20.14019197 393.12842146 20.5 391 C20.74147185 389.54306582 20.98236238 388.08603518 21.22265625 386.62890625 C21.80839953 383.0847991 22.40202192 379.54206589 23 376 C21.44477882 376.00119339 21.44477882 376.00119339 19.85813904 376.00241089 C10.07385018 376.00601754 0.29008593 375.97816223 -9.49403477 375.9197216 C-14.52389935 375.89068343 -19.5532984 375.87262458 -24.58325195 375.87988281 C-29.44006138 375.88648349 -34.29595151 375.86394903 -39.15257072 375.82144547 C-41.00282455 375.81032739 -42.85317174 375.80960239 -44.70343208 375.81957626 C-47.30142815 375.8317827 -49.89663265 375.80661088 -52.49438477 375.77294922 C-53.25467987 375.78517014 -54.01497498 375.79739105 -54.79830933 375.8099823 C-60.08856917 375.68694262 -62.8136906 374.11378424 -66.68728542 370.54472542 C-69.45891789 367.28323111 -68.71951031 364.0787987 -68.49609375 360.0390625 C-67.76433165 353.33659489 -66.41598961 346.7238995 -65.13671875 340.109375 C-63.93356858 333.80531634 -62.9788075 327.47626407 -62.0625 321.125 C-58.62686045 297.47822933 -54.83252408 273.89218774 -50.97744751 250.31088257 C-48.74155512 236.62943236 -46.57698572 222.93962062 -44.49462891 209.23388672 C-43.32375779 201.57872444 -42.11905327 193.92876335 -40.92089844 186.27783203 C-40.70637617 184.90787824 -40.49185795 183.53792381 -40.27734375 182.16796875 C-40.11735397 181.14645721 -40.11735397 181.14645721 -39.95413208 180.10430908 C-39.23730251 175.52462123 -38.52565268 170.94415096 -37.81640625 166.36328125 C-35.2997601 150.13428643 -32.69396123 133.92162102 -30.04455566 117.71380615 C-27.49505249 102.11121711 -25.02035833 86.4988937 -22.6015625 70.87548828 C-21.96741502 66.79007552 -21.32817916 62.70548584 -20.6875 58.62109375 C-20.57846848 57.92463242 -20.46943695 57.22817108 -20.35710144 56.51060486 C-19.81892755 53.07378444 -19.2781337 49.63741999 -18.73168945 46.2019043 C-17.82125817 40.44135076 -16.93699344 34.68788059 -16.23046875 28.8984375 C-14.04949288 11.34221028 -14.04949288 11.34221028 -8 5 C-5.02339749 2.92750573 -3.661492 2 0 2 C0 1.34 0 0.68 0 0 Z " fill="#002E86" transform="translate(77,9)"/>
<path d="M0 0 C3.41915481 1.24656686 6.13029417 2.64172087 9 4.875 C9.639375 5.36742188 10.27875 5.85984375 10.9375 6.3671875 C11.618125 6.90601562 12.29875 7.44484375 13 8 C13.8146875 8.60070312 14.629375 9.20140625 15.46875 9.8203125 C27.25439895 19.96906576 34.03975937 37.4763405 35.30371094 52.64477539 C35.43803249 56.59943422 35.47288441 60.54403436 35.4375 64.5 C35.43512329 65.20043427 35.43274658 65.90086853 35.43029785 66.62252808 C35.36757494 78.47260504 34.04869766 89.54146852 31 101 C30.66987218 102.37290743 30.34296251 103.74659333 30.01953125 105.12109375 C28.05039138 113.10213821 25.45251095 120.54527663 22 128 C21.24589844 129.66482422 21.24589844 129.66482422 20.4765625 131.36328125 C16.22904315 140.32694298 11.07292483 148.18445327 5 156 C4.36449219 156.82242188 3.72898437 157.64484375 3.07421875 158.4921875 C-17.18252846 182.86968628 -49.46446961 193.81840725 -80 197 C-86.88832844 197.49510246 -93.79253758 197.65987555 -100.69677734 197.72436523 C-111.94163463 197.56960197 -111.94163463 197.56960197 -121.875 202.16796875 C-124.34244257 205.45638026 -125.26044622 208.35319841 -126 212.3125 C-126.15605713 213.0761084 -126.31211426 213.8397168 -126.47290039 214.62646484 C-128.82323995 226.57909541 -130.53235052 238.66096745 -132.35009766 250.70410156 C-134.1784154 262.81132158 -136.07379445 274.90800277 -138 287 C-138.22018799 288.41007324 -138.22018799 288.41007324 -138.44482422 289.84863281 C-138.80178356 292.11040484 -139.17702895 294.36794396 -139.5625 296.625 C-139.74941406 297.75164062 -139.93632812 298.87828125 -140.12890625 300.0390625 C-141.98133586 306.3356618 -145.33491978 309.86472414 -151 313 C-153.78338684 313.38959503 -156.16967636 313.56845558 -158.94555664 313.54931641 C-159.71868698 313.55953827 -160.49181732 313.56976013 -161.28837585 313.58029175 C-163.8292892 313.60796278 -166.36911071 313.60618114 -168.91015625 313.6015625 C-170.68322652 313.60934124 -172.45629309 313.61801158 -174.22935486 313.62753296 C-177.93891506 313.64242974 -181.64809443 313.64189402 -185.35766602 313.63134766 C-190.10841537 313.61974035 -194.85760972 313.65367178 -199.60810184 313.700037 C-203.26705513 313.72951183 -206.9256334 313.73125574 -210.58468437 313.72501755 C-212.33617682 313.72604333 -214.08769044 313.73650714 -215.83906746 313.75664139 C-218.28835202 313.7813521 -220.73460112 313.76781169 -223.18383789 313.74462891 C-223.90449432 313.75991638 -224.62515076 313.77520386 -225.36764526 313.79095459 C-228.15946643 313.73261497 -230.35889946 313.51459321 -232.57720757 311.73402023 C-234.96977869 309.0201367 -235.97201446 307.2063341 -236.4609375 303.6015625 C-236.05348383 297.52443433 -234.97022217 291.48624713 -233.97363281 285.48144531 C-233.62489107 283.37434182 -233.28833797 281.26554333 -232.953125 279.15625 C-232.73249226 277.79936166 -232.5111619 276.44258654 -232.2890625 275.0859375 C-232.09006348 273.8695459 -231.89106445 272.6531543 -231.68603516 271.39990234 C-231 268 -231 268 -229.98901367 265.00854492 C-228.86650804 261.59392215 -228.36302829 258.33968005 -227.88671875 254.77734375 C-227.69124558 253.35172497 -227.49577023 251.9261065 -227.30029297 250.50048828 C-227.20053162 249.75671936 -227.10077026 249.01295044 -226.99798584 248.24664307 C-225.35081556 235.99632007 -223.53237975 223.79679209 -221.375 211.625 C-219.78276638 202.64034024 -218.33052295 193.66172399 -217.09545898 184.62133789 C-216.05145974 177.08904933 -214.75741155 169.60828611 -213.40771484 162.12524414 C-212.44980675 156.77592902 -211.67392938 151.46153681 -211.0625 146.0625 C-210.01490333 138.56676524 -207.48406337 133.65581209 -201.4375 129.0625 C-197.16997593 126.15506443 -193.23561561 125.87309801 -188.14013672 125.82641602 C-186.95725067 125.81292618 -185.77436462 125.79943634 -184.55563354 125.78553772 C-183.27657135 125.77509933 -181.99750916 125.76466095 -180.6796875 125.75390625 C-179.33846257 125.73837304 -177.99724535 125.72216131 -176.65603638 125.70530701 C-170.97993047 125.63502126 -165.30374283 125.5752545 -159.62744141 125.52319336 C-131.14071172 125.36850655 -131.14071172 125.36850655 -103.125 120.625 C-102.23699707 120.40223389 -101.34899414 120.17946777 -100.43408203 119.94995117 C-97.95122516 119.31685674 -95.47508923 118.66270246 -93 118 C-91.90171875 117.71511719 -90.8034375 117.43023437 -89.671875 117.13671875 C-71.1222201 111.67027017 -54.91240197 100.07141049 -41 87 C-40.11248047 86.2265625 -40.11248047 86.2265625 -39.20703125 85.4375 C-19.34400754 67.32015771 -9.56854856 39.30841298 -3.47021484 13.9453125 C-2.74836615 10.95897275 -1.9984549 7.9797641 -1.25 5 C-0.88648438 3.5459375 -0.88648438 3.5459375 -0.515625 2.0625 C-0.34546875 1.381875 -0.1753125 0.70125 0 0 Z " fill="#009BDD" transform="translate(331,117)"/>
<path d="M0 0 C1.52098297 -0.00788544 1.52098297 -0.00788544 3.07269287 -0.01593018 C6.42272403 -0.02912208 9.77227847 -0.02038606 13.12231445 -0.01025391 C15.46718944 -0.0122769 17.81206381 -0.01519022 20.15693665 -0.01895142 C25.07880628 -0.0233754 30.00051264 -0.01694869 34.92236328 -0.00292969 C41.18013348 0.01403944 47.43751414 0.00439975 53.69526958 -0.01364708 C58.54540332 -0.02458809 63.39544778 -0.02098967 68.24558449 -0.0132637 C70.54927429 -0.01128364 72.85297261 -0.01364237 75.15665245 -0.02070236 C100.85913267 -0.08211316 127.42538714 1.57891784 147.1105957 20.26318359 C159.79464235 33.85323358 163.46228552 50.51172278 163.1340332 68.75537109 C161.88155146 97.76947285 151.24484188 125.71013057 130.2355957 146.01318359 C110.06481614 163.46325336 84.16463758 168.2137091 58.2980957 168.59912109 C57.36679337 168.6135022 56.43549103 168.6278833 55.47596741 168.6427002 C51.5949416 168.70015119 47.71406965 168.75503892 43.83276367 168.78955078 C40.96669132 168.81711374 38.10137613 168.86290711 35.2355957 168.91162109 C34.36161133 168.91487396 33.48762695 168.91812683 32.5871582 168.92147827 C26.14039019 169.03772275 26.14039019 169.03772275 20.7980957 172.38818359 C18.10586409 178.06060459 17.02197289 183.7347728 16.0793457 189.90771484 C15.86332703 191.25478767 15.86332703 191.25478767 15.64294434 192.6290741 C15.18681893 195.48509731 14.7422447 198.34277612 14.2980957 201.20068359 C14.00068424 203.07515419 13.70251275 204.94950436 13.40356445 206.82373047 C13.10780005 208.68502818 12.81222632 210.54635619 12.5168457 212.40771484 C12.37158447 213.32287872 12.22632324 214.2380426 12.07666016 215.18093872 C11.35936045 219.72835105 10.66558307 224.27723106 10.0168457 228.83496094 C9.8902356 229.69925217 9.76362549 230.5635434 9.63317871 231.45402527 C9.3963923 233.07536322 9.16816988 234.6979853 8.95031738 236.32197571 C8.09227262 242.11606672 6.65511129 245.71686957 2.2980957 249.63818359 C-1.13129428 252.03875658 -3.69635266 252.51504877 -7.77758789 252.54931641 C-8.70219818 252.55892395 -9.62680847 252.56853149 -10.57943726 252.57843018 C-11.57633575 252.58268005 -12.57323425 252.58692993 -13.6003418 252.59130859 C-14.6274527 252.59700867 -15.6545636 252.60270874 -16.71279907 252.60858154 C-18.88656586 252.61802992 -21.06034696 252.62456488 -23.23413086 252.62841797 C-26.5569764 252.63812538 -29.87920389 252.66915144 -33.2019043 252.70068359 C-35.31387979 252.7072136 -37.42585971 252.71246408 -39.5378418 252.71630859 C-40.53069183 252.7286554 -41.52354187 252.7410022 -42.54647827 252.75372314 C-51.25810111 252.72563846 -51.25810111 252.72563846 -55.2019043 249.38818359 C-58.89973215 241.99252788 -55.2724327 230.55230526 -53.9519043 222.88818359 C-53.72046485 221.50740519 -53.49001219 220.12646106 -53.26049805 218.74536133 C-52.91095306 216.64199362 -52.56097514 214.53871468 -52.20812988 212.43589783 C-51.14845034 206.11615082 -50.16423847 199.7859673 -49.2019043 193.45068359 C-48.87662181 191.32174091 -48.55109706 189.19283523 -48.2253418 187.06396484 C-48.06001953 185.98324707 -47.89469727 184.9025293 -47.72436523 183.7890625 C-46.76903246 177.5704711 -45.79855679 171.35424265 -44.8269043 165.13818359 C-44.72195648 164.46667267 -44.61700867 163.79516174 -44.50888062 163.103302 C-43.31266087 155.45246336 -42.11091885 147.80251248 -40.90112305 140.15380859 C-40.78998169 139.4511235 -40.67884033 138.74843842 -40.56433105 138.02445984 C-40.09438412 135.05369106 -39.62438411 132.08293073 -39.15411377 129.11221313 C-37.14029961 116.38681606 -35.14957133 103.65786911 -33.16673279 90.9276123 C-32.07712632 83.93300127 -30.98546139 76.93872463 -29.88818359 69.9453125 C-29.7809324 69.26159702 -29.6736812 68.57788155 -29.56317997 67.87344742 C-28.67898211 62.23682018 -28.67898211 62.23682018 -28.28276253 59.71269226 C-27.09784525 52.16175064 -25.92611194 44.60919247 -24.78765869 37.05110168 C-24.26118236 33.56554868 -23.72407741 30.08169426 -23.18432617 26.59817505 C-22.94944589 25.06373216 -22.71979249 23.52847837 -22.49584961 21.99240112 C-22.19514448 19.93190594 -21.87659235 17.87495 -21.5534668 15.81787109 C-21.30330811 14.15087158 -21.30330811 14.15087158 -21.0480957 12.45019531 C-19.73898917 7.71308795 -17.83981415 4.46671057 -13.69636536 1.73834229 C-9.03287278 -0.06349637 -4.95674277 -0.03171482 0 0 Z M36.7980957 55.38818359 C36.02640252 57.63025122 36.02640252 57.63025122 35.7980957 60.20068359 C35.1116414 65.18650961 34.32825271 70.13152238 33.43774414 75.08398438 C30.91444071 89.13931115 28.82908254 103.25453965 26.7980957 117.38818359 C57.95223799 118.89930397 57.95223799 118.89930397 84.8527832 105.74365234 C91.63396819 97.53269944 93.01726004 88.38083698 93.1730957 78.13818359 C93.21047852 77.22166016 93.24786133 76.30513672 93.28637695 75.36083984 C93.3712605 68.7493548 92.09691295 64.47102248 87.7980957 59.38818359 C78.34970377 50.82905208 64.52918987 51.18500015 52.5480957 51.07568359 C51.47301758 51.04667969 50.39793945 51.01767578 49.2902832 50.98779297 C48.25645508 50.97941406 47.22262695 50.97103516 46.1574707 50.96240234 C44.75706543 50.94052856 44.75706543 50.94052856 43.32836914 50.91821289 C40.03887596 51.52920038 38.87283455 52.82352642 36.7980957 55.38818359 Z " fill="#002E86" transform="translate(563.201904296875,120.61181640625)"/>
<path d="M0 0 C1.31124092 -0.00856522 1.31124092 -0.00856522 2.64897156 -0.01730347 C3.61088913 -0.01842133 4.5728067 -0.01953918 5.56387329 -0.02069092 C7.08157066 -0.02813828 7.08157066 -0.02813828 8.62992859 -0.03573608 C11.99675165 -0.05040315 15.36352735 -0.05717292 18.7303772 -0.06268311 C21.0785726 -0.0684379 23.42676799 -0.07419559 25.77496338 -0.07995605 C30.71648375 -0.09048372 35.6579878 -0.0963125 40.59951782 -0.09979248 C46.8796866 -0.10523221 53.15963359 -0.12915456 59.43973351 -0.15776443 C64.30276066 -0.17656684 69.16573675 -0.18160603 74.02879715 -0.18312836 C76.34004533 -0.18612406 78.6512933 -0.19404599 80.96250534 -0.20731354 C107.12530325 -0.34657953 133.816237 1.14791441 154.0819397 19.82794189 C165.84604189 32.36346062 169.59524704 47.6142738 169.4569397 64.39044189 C169.45296677 65.42526199 169.45296677 65.42526199 169.44891357 66.48098755 C169.31108233 85.78318528 165.24457881 104.18479747 155.8319397 121.14044189 C155.34983032 122.04407471 154.86772095 122.94770752 154.3710022 123.87872314 C142.61016236 144.76883368 123.70583805 157.70054764 101.0506897 164.23028564 C89.14819452 167.45760028 77.66836216 168.16844583 65.36709595 168.31622314 C63.97348846 168.33431282 63.97348846 168.33431282 62.55172729 168.35276794 C58.68181473 168.4011946 54.81224093 168.44876766 50.94204712 168.46636963 C48.08322211 168.48184075 45.22560154 168.52197753 42.36709595 168.56622314 C41.06386131 168.56336052 41.06386131 168.56336052 39.73429871 168.56044006 C35.92992807 168.63709154 33.02873502 169.06980646 29.42349243 170.36383057 C25.22044159 174.86701448 24.81031165 180.19469046 23.8319397 186.14044189 C23.64268921 187.23532928 23.45343872 188.33021667 23.25845337 189.45828247 C22.69567014 192.85692034 22.18049385 196.26007676 21.6756897 199.66778564 C21.28925998 202.19582463 20.90253266 204.72381815 20.51553345 207.25177002 C19.91929217 211.18355959 19.32585804 215.11573781 18.73867798 219.04888916 C18.16402233 222.88159039 17.57691854 226.71222464 16.9881897 230.54278564 C16.73023621 232.30536964 16.73023621 232.30536964 16.46707153 234.1035614 C14.52500997 246.63536031 14.52500997 246.63536031 9.84536743 250.98834229 C5.15883616 252.78010612 0.59300916 252.58795999 -4.38290405 252.57403564 C-5.47140152 252.5792775 -6.55989899 252.58451935 -7.68138123 252.58992004 C-9.98023629 252.59633507 -12.2791242 252.59501 -14.57797241 252.58648682 C-18.08971795 252.57798027 -21.59983488 252.60674202 -25.11141968 252.63848877 C-27.34774732 252.64010102 -29.58407783 252.6395228 -31.82040405 252.63653564 C-32.86744003 252.64776962 -33.91447601 252.6590036 -34.99324036 252.670578 C-40.98830284 252.61345005 -44.66289813 252.25405399 -49.1680603 248.14044189 C-51.51486292 241.44435257 -49.21512925 234.1135591 -47.9805603 227.32794189 C-47.62320378 225.2923296 -47.26991838 223.2560363 -46.91682434 221.21968079 C-46.67758423 219.84116809 -46.43715164 218.46286183 -46.19554138 217.08476257 C-45.11857549 210.92845916 -44.15862901 204.758137 -43.2305603 198.57794189 C-41.62042043 187.9398453 -39.90412026 177.32100991 -38.1680603 166.70294189 C-36.44355308 156.1509606 -34.76061274 145.59775021 -33.2305603 135.01544189 C-31.5172747 123.17937075 -29.60212173 111.37960952 -27.6680603 99.57794189 C-24.82115692 82.21341198 -24.82115692 82.21341198 -22.1055603 64.82794189 C-21.95804321 63.86436768 -21.81052612 62.90079346 -21.65853882 61.90802002 C-20.9246224 57.11044623 -20.19386949 52.31241358 -19.46884155 47.51348877 C-18.82019073 43.22536759 -18.16265701 38.9386673 -17.50085449 34.65255737 C-17.24070382 32.95815362 -16.98336387 31.26331554 -16.72906494 29.56802368 C-13.38641826 7.30469356 -13.38641826 7.30469356 -8.6055603 2.64044189 C-5.39869348 0.66698539 -3.72522209 0.01455698 0 0 Z M43.8319397 55.14044189 C43.13402038 57.65198544 42.66666052 59.89389964 42.31240845 62.45294189 C42.13877022 63.55750732 42.13877022 63.55750732 41.96162415 64.68438721 C41.7084514 66.30168909 41.4622304 67.9200905 41.22201538 69.53936768 C40.81669283 72.24210997 40.38384227 74.93924477 39.9437561 77.63653564 C39.15449567 82.4779538 38.38124737 87.32171533 37.61489868 92.16680908 C37.13625831 95.19215404 36.65514804 98.21709927 36.17373657 101.24200439 C35.86825663 103.16646112 35.56291272 105.09093945 35.25772095 107.01544189 C35.11401566 107.91939697 34.97031036 108.82335205 34.82225037 109.75469971 C34.1341326 113.43093066 34.1341326 113.43093066 33.8319397 117.14044189 C64.41831161 118.7495802 64.41831161 118.7495802 91.0428772 106.32794189 C100.02739163 95.34250941 100.57844003 82.68804055 99.8319397 69.14044189 C98.95808064 64.1342663 96.95039474 60.31845854 92.7616272 57.23419189 C82.31692832 51.31411966 71.27851747 50.93466249 59.5819397 50.82794189 C58.50686157 50.79893799 57.43178345 50.76993408 56.3241272 50.74005127 C55.29029907 50.73167236 54.25647095 50.72329346 53.1913147 50.71466064 C51.79090942 50.69278687 51.79090942 50.69278687 50.36221313 50.67047119 C46.93143279 51.30770124 45.87267119 52.32236977 43.8319397 55.14044189 Z " fill="#009BDE" transform="translate(1199.1680603027344,120.85955810546875)"/>
<path d="M0 0 C1.79578444 1.93321692 3.39031113 3.90252662 5 6 C5.15855469 5.25234375 5.31710937 4.5046875 5.48046875 3.734375 C5.71378906 2.74953125 5.94710937 1.7646875 6.1875 0.75 C6.51814453 -0.71179688 6.51814453 -0.71179688 6.85546875 -2.203125 C8.36358859 -5.88849635 9.5611344 -6.94127842 13 -9 C16.60394916 -9.59354435 20.1665918 -9.56052329 23.8125 -9.53125 C25.38221558 -9.53699036 25.38221558 -9.53699036 26.98364258 -9.54284668 C29.19255538 -9.54556438 31.40150044 -9.53821322 33.61035156 -9.52148438 C36.98836119 -9.50007377 40.3642439 -9.52129197 43.7421875 -9.546875 C45.89062969 -9.5442317 48.03907055 -9.53910668 50.1875 -9.53125 C51.19594971 -9.53934692 52.20439941 -9.54744385 53.2434082 -9.55578613 C57.47011123 -9.49936039 60.31234457 -9.35245576 64.11328125 -7.40429688 C67.24113934 -3.41838247 67.1392275 0.31304811 66.73388672 5.22436523 C66.55100098 6.32466064 66.36811523 7.42495605 66.1796875 8.55859375 C65.9734375 9.83541016 65.7671875 11.11222656 65.5546875 12.42773438 C65.32853615 13.76439254 65.10197751 15.10098187 64.875 16.4375 C64.56609677 18.32161167 64.25722709 20.2057291 63.94955444 22.09004211 C63.72145191 23.48394737 63.49207556 24.87764459 63.2616272 26.27116394 C62.01052433 33.85614277 60.82463478 41.4511812 59.640625 49.046875 C59.48104309 50.07050329 59.48104309 50.07050329 59.3182373 51.11481094 C58.76700267 54.65158335 58.21624656 58.18843008 57.66571045 61.72531128 C56.69587245 67.95481212 55.72239253 74.18374396 54.74910355 80.41270638 C54.32314515 83.13892305 53.89732025 85.86516057 53.4715023 88.59139919 C53.25895578 89.95219755 53.04640213 91.3129948 52.83384132 92.67379093 C52.29718523 96.10941868 51.76059405 99.54505654 51.22412109 102.98071289 C51.11666943 103.66877077 51.00921776 104.35682865 50.89850998 105.06573677 C50.68319505 106.44466692 50.46794639 107.82360742 50.25276566 109.20255852 C49.73310355 112.53169652 49.21165198 115.86053091 48.68768311 119.18899536 C47.80881425 124.77648956 46.9394023 130.36383223 46.13378906 135.96240234 C45.93984055 137.27962532 45.93984055 137.27962532 45.74197388 138.62345886 C45.51341731 140.18302877 45.29256232 141.7437612 45.08200073 143.30586243 C44.2372572 148.99468084 42.76928146 153.36341465 38.5 157.3125 C35.1942865 159.54385661 32.68937711 160.12527109 28.79150391 160.16113281 C27.94697662 160.17074036 27.10244934 160.1803479 26.23233032 160.19024658 C24.86822525 160.1966214 24.86822525 160.1966214 23.4765625 160.203125 C22.53823578 160.20882507 21.59990906 160.21452515 20.63314819 160.22039795 C18.64769619 160.22984394 16.66222854 160.23638034 14.67675781 160.24023438 C11.64360136 160.24994048 8.61112244 160.28096786 5.578125 160.3125 C3.64844152 160.31903023 1.7187532 160.32428062 -0.2109375 160.328125 C-1.56896988 160.3466452 -1.56896988 160.3466452 -2.95443726 160.36553955 C-7.795198 160.34846496 -11.07732337 160.1707817 -15 157 C-17.38045442 153.74253606 -17.09054164 151.16054976 -16.625 147.25 C-16.51414062 146.26515625 -16.40328125 145.2803125 -16.2890625 144.265625 C-16.19367188 143.51796875 -16.09828125 142.7703125 -16 142 C-16.680625 142.556875 -17.36125 143.11375 -18.0625 143.6875 C-36.54703211 158.23915294 -58.60776113 166.08422418 -82.36328125 163.65625 C-102.25582998 161.04739115 -119.05275498 154.42372362 -131.8125 138.25 C-145.89375254 118.30994059 -148.79237368 94.9449031 -144.96801758 71.23022461 C-140.96870526 50.03616416 -130.96480316 31.42401192 -116 16 C-115.38898437 15.31550781 -114.77796875 14.63101563 -114.1484375 13.92578125 C-88.49198994 -13.85960557 -30.93321956 -25.882898 0 0 Z M-76.0625 52.40625 C-83.47638583 62.33129071 -87.62511445 75.5781482 -86 88 C-84.23578942 97.06515752 -81.24300066 104.06716669 -74 110 C-63.06857302 116.82803847 -50.44958494 117.85071817 -37.84130859 115.61767578 C-25.74894077 112.59382862 -16.24436519 104.96495648 -9 95 C-2.4801514 83.25103425 0.38357999 70.16564657 -2.72265625 56.91796875 C-3.65208019 54.46835342 -4.69276946 52.26842947 -6 50 C-6.37382813 49.34644531 -6.74765625 48.69289063 -7.1328125 48.01953125 C-12.38909851 39.85662351 -19.39599754 37.08291862 -28.52734375 34.73046875 C-46.62940548 30.92272348 -64.38823967 38.56391275 -76.0625 52.40625 Z " fill="#002E86" transform="translate(857,213)"/>
<path d="M0 0 C6.5550212 5.7506674 6.5550212 5.7506674 8.01953125 8.6796875 C8.17808594 7.85984375 8.33664062 7.04 8.5 6.1953125 C8.73332031 5.11765625 8.96664063 4.04 9.20703125 2.9296875 C9.42746094 1.86234375 9.64789062 0.795 9.875 -0.3046875 C11.34514018 -4.1782309 12.4439152 -5.19547138 16.01953125 -7.3203125 C19.62377554 -7.91254955 23.18600924 -7.8808367 26.83203125 -7.8515625 C28.40174683 -7.85730286 28.40174683 -7.85730286 30.00317383 -7.86315918 C32.21208663 -7.86587688 34.42103169 -7.85852572 36.62988281 -7.84179688 C40.00789244 -7.82038627 43.38377515 -7.84160447 46.76171875 -7.8671875 C48.91016094 -7.8645442 51.0586018 -7.85941918 53.20703125 -7.8515625 C54.21548096 -7.85965942 55.22393066 -7.86775635 56.26293945 -7.87609863 C60.48964248 -7.81967289 63.33187582 -7.67276826 67.1328125 -5.72460938 C70.13372519 -1.90046494 70.1396336 2.13912585 69.76928711 6.8895874 C69.50450562 8.53703949 69.50450562 8.53703949 69.234375 10.21777344 C69.0364183 11.48141724 68.83846161 12.74506104 68.63450623 14.04699707 C68.40889438 15.41938727 68.18306301 16.7917414 67.95703125 18.1640625 C67.72711134 19.60659009 67.49809148 21.0492614 67.26991272 22.49206543 C66.6581568 26.3437747 66.03380911 30.1933433 65.40694046 34.0426178 C64.75925479 38.03341309 64.12334483 42.02608403 63.48608398 46.01855469 C62.12071525 54.55833058 60.73907639 63.09541836 59.3521347 71.63171387 C58.85769136 74.67620097 58.36467905 77.72091959 57.87158203 80.765625 C56.66804002 88.19203964 55.46224365 95.61807044 54.2434082 103.04199219 C52.51499628 113.57320062 50.84044824 124.11036859 49.26000977 134.66503906 C48.55555233 139.34379334 47.8180507 144.01599815 47.01953125 148.6796875 C46.79330078 150.01 46.79330078 150.01 46.5625 151.3671875 C45.78095263 154.69579215 44.5985155 156.44921464 42.01953125 158.6796875 C36.33110135 161.67518562 31.69358387 162.12274363 25.32421875 162.078125 C24.41374786 162.08099518 23.50327698 162.08386536 22.56521606 162.08682251 C20.65073012 162.08885455 18.73622301 162.0833852 16.82177734 162.07080078 C13.89633807 162.05469745 10.97227243 162.07069784 8.046875 162.08984375 C6.18098655 162.08786189 4.31509895 162.08401941 2.44921875 162.078125 C1.57828583 162.08419769 0.70735291 162.09027039 -0.18997192 162.0965271 C-4.92754352 162.04175175 -8.16230603 161.79814374 -11.98046875 158.6796875 C-14.33166274 155.15289651 -14.19490327 153.65089265 -14.10546875 149.4921875 C-14.08742188 148.40550781 -14.069375 147.31882812 -14.05078125 146.19921875 C-14.02757812 145.36777344 -14.004375 144.53632813 -13.98046875 143.6796875 C-14.44195313 144.11539063 -14.9034375 144.55109375 -15.37890625 145 C-31.11883077 159.37123543 -51.94725707 166.09647428 -73.1484375 165.8359375 C-93.07401818 164.73659512 -111.55971261 158.88778914 -125.54296875 144.1171875 C-137.82572747 129.37787704 -143.40710669 111.5488705 -143.29296875 92.5546875 C-143.2873291 91.55622803 -143.28168945 90.55776855 -143.27587891 89.52905273 C-142.80857028 60.64151428 -130.89392188 34.93554086 -110.32373047 14.67578125 C-84.02425864 -10.56723401 -31.42292003 -24.46292857 0 0 Z M-71.48828125 51.79296875 C-74.15310718 55.16236907 -76.06301028 58.85184605 -77.98046875 62.6796875 C-78.53734375 63.6284375 -79.09421875 64.5771875 -79.66796875 65.5546875 C-84.4289529 76.89036406 -84.16509587 89.26214886 -79.98046875 100.6796875 C-75.8752147 108.45034696 -69.02914541 113.44362163 -60.98046875 116.6796875 C-50.88845443 119.58796099 -37.54101548 118.84757403 -27.98046875 114.6796875 C-27.33722656 114.44765625 -26.69398437 114.215625 -26.03125 113.9765625 C-14.7335932 109.30167003 -7.2572705 99.77487137 -2.28515625 89.0390625 C1.91277857 78.23000877 3.19150654 66.15817261 -0.98046875 55.1171875 C-5.53005546 45.86593876 -11.55921861 41.30338616 -21.05078125 37.58984375 C-39.08858389 31.98609973 -58.73820068 38.21931838 -71.48828125 51.79296875 Z " fill="#009BDE" transform="translate(1496.98046875,211.3203125)"/>
<path d="M0 0 C1.56156578 -0.01052147 1.56156578 -0.01052147 3.15467834 -0.02125549 C4.28661621 -0.01361176 5.41855408 -0.00596802 6.58479309 0.00190735 C7.78555984 -0.00174332 8.9863266 -0.00539398 10.22348022 -0.00915527 C13.51367725 -0.01586948 16.80350467 -0.00914369 20.09367156 0.00417686 C23.55525587 0.01553857 27.01682646 0.01137934 30.47842407 0.00942993 C36.30494511 0.00854691 42.13134986 0.01961623 47.95783997 0.03804016 C54.64854519 0.05907881 61.33907857 0.06274534 68.02981013 0.0564782 C74.50268727 0.05072992 80.97550519 0.05650203 87.44837379 0.06765175 C90.1827284 0.07223941 92.91704608 0.07319721 95.65140343 0.0710659 C122.45003667 0.06844778 145.75684645 2.40897261 170.73640442 12.3742218 C171.22825718 19.50608684 169.8310792 25.20752163 167.74421692 32.0226593 C166.943362 34.68596752 166.28081527 37.27716753 165.73640442 39.9992218 C159.07458521 70.76779355 137.83625446 100.19817992 111.57917786 117.22480774 C102.736926 122.74008619 93.63041604 127.07621793 83.73640442 130.3742218 C82.54273254 130.84988586 81.34906067 131.32554993 80.11921692 131.81562805 C75.04556168 133.72769013 69.84095994 134.86144742 64.54890442 135.9992218 C63.59693176 136.2157843 62.64495911 136.4323468 61.66413879 136.6554718 C49.58867272 139.28304132 37.46756893 139.51418626 25.15046692 139.5851593 C23.79575326 139.59817024 22.44104717 139.61199127 21.08634949 139.62657166 C15.40417315 139.68735286 9.72203802 139.74235945 4.03962708 139.77558899 C0.53609146 139.7966046 -2.9670576 139.83192747 -6.47037125 139.87634659 C-8.43052736 139.89719133 -10.39082887 139.90253199 -12.35108948 139.90751648 C-20.7140612 140.02308633 -26.41481742 140.93738931 -33.20109558 146.0617218 C-34.21172058 146.8248468 -35.22234558 147.5879718 -36.26359558 148.3742218 C-36.47906491 142.64034349 -36.26493422 137.45735811 -34.85392761 131.88935852 C-32.31544436 121.07403408 -31.21134992 109.88743349 -29.76359558 98.88789368 C-28.96183794 92.93421683 -28.06364756 87.09434861 -26.67424011 81.24946594 C-26.10654126 78.65701953 -25.87944304 76.08157674 -25.70109558 73.4367218 C-25.36636883 68.57976829 -25.36636883 68.57976829 -24.26359558 66.3742218 C-23.87646444 64.10546619 -23.53424592 61.82899499 -23.21281433 59.55000305 C-23.00912259 58.12453527 -22.80534295 56.69908005 -22.60148621 55.27363586 C-22.49554138 54.52440857 -22.38959656 53.77518127 -22.28044128 53.00325012 C-21.72924779 49.12630466 -21.15797977 45.2523213 -20.58781433 41.37812805 C-20.41764297 40.22152176 -20.41764297 40.22152176 -20.24403381 39.04154968 C-20.02146692 37.52882955 -19.79880322 36.01612366 -19.57603455 34.50343323 C-19.28792041 32.53999084 -19.00337638 30.57602545 -18.71916199 28.61201477 C-18.25462487 25.44579168 -17.76417688 22.28491474 -17.26359558 19.1242218 C-17.1342865 18.21067932 -17.00497742 17.29713684 -16.87174988 16.35591125 C-15.9224026 10.57883279 -14.5181926 7.45566662 -10.26359558 3.3742218 C-6.70826228 0.88480732 -4.32998339 -0.00080596 0 0 Z " fill="#002069" transform="translate(159.2635955810547,103.62577819824219)"/>
<path d="M0 0 C0.93825119 -0.01283524 1.87650238 -0.02567047 2.84318542 -0.03889465 C3.86084488 -0.04628159 4.87850433 -0.05366852 5.92700195 -0.0612793 C7.49596977 -0.07338692 7.49596977 -0.07338692 9.09663391 -0.08573914 C11.31505675 -0.09958859 13.53350097 -0.11030688 15.75195312 -0.11816406 C19.13428602 -0.13534063 22.51563241 -0.17921567 25.89770508 -0.22338867 C28.05329685 -0.2335187 30.20889693 -0.24203383 32.36450195 -0.2487793 C33.8758094 -0.27504143 33.8758094 -0.27504143 35.41764832 -0.30183411 C41.62348022 -0.28280334 45.57252475 0.22566602 50.4777832 4.17700195 C52.2800293 7.51269531 52.2800293 7.51269531 53.4777832 11.17700195 C53.84597168 12.25151611 54.21416016 13.32603027 54.59350586 14.43310547 C54.93945801 15.54613037 55.28541016 16.65915527 55.6418457 17.8059082 C55.8351799 18.42493011 56.0285141 19.04395203 56.22770691 19.68173218 C56.85664279 21.69979724 57.4799181 23.71955569 58.1027832 25.73950195 C58.54363754 27.16020126 58.98463925 28.58085484 59.42578125 30.00146484 C64.45321599 46.22495543 69.37680824 62.48370726 74.11450195 78.79418945 C74.34999756 79.60380127 74.58549316 80.41341309 74.828125 81.24755859 C75.24567169 82.68849481 75.6601565 84.13032373 76.07080078 85.57324219 C76.7938762 88.63003602 76.7938762 88.63003602 78.4777832 91.17700195 C78.92766602 90.49637695 79.37754883 89.81575195 79.84106445 89.11450195 C83.69278985 83.30989775 87.58690786 77.53788704 91.5402832 71.80200195 C100.79751239 58.36849257 110.02749943 44.91580647 119.04345703 31.31884766 C122.44185272 26.20374399 125.92895499 21.15454115 129.4543457 16.1262207 C131.69989355 12.85326968 133.78807254 9.50164004 135.7980957 6.0793457 C138.88877495 2.57897177 142.36966662 0.49707009 146.96469116 -0.20057678 C149.8849615 -0.35052742 152.78029833 -0.37745958 155.7043457 -0.35424805 C156.7701889 -0.35807495 157.8360321 -0.36190186 158.93417358 -0.36584473 C161.17821197 -0.36855718 163.42228233 -0.36124295 165.66625977 -0.34448242 C169.09894146 -0.32302206 172.52954027 -0.34432981 175.9621582 -0.36987305 C178.14705865 -0.36723048 180.3319578 -0.36210698 182.5168457 -0.35424805 C183.54089508 -0.36234497 184.56494446 -0.37044189 185.62002563 -0.37878418 C190.03594014 -0.32066722 192.72978306 -0.26736389 196.58300781 2.02172852 C198.4777832 4.17700195 198.4777832 4.17700195 199.75512695 7.19262695 C199.31092115 13.57417507 195.67127654 17.809879 192.0402832 22.92700195 C191.33967773 23.94793945 190.63907227 24.96887695 189.91723633 26.02075195 C185.80297794 31.98585887 181.55018045 37.84740128 177.27539062 43.69799805 C174.90742829 46.96355415 172.6201185 50.27866793 170.3527832 53.61450195 C166.14557072 59.76999583 161.88785122 65.88797624 157.6027832 71.98950195 C152.93016674 78.64519681 148.3060446 85.33107083 143.7277832 92.05200195 C140.07836275 97.40882983 136.39622673 102.73364932 132.6027832 107.98950195 C127.5711282 114.96222311 122.74390626 122.07204456 117.91772461 129.18798828 C113.82352393 135.22203678 109.67465386 141.21394572 105.4777832 147.17700195 C98.20029851 157.52671493 90.96193486 167.89814937 83.8527832 178.36450195 C78.89657524 185.66121224 73.88785602 192.91404678 68.77001953 200.09838867 C66.29057422 203.58435817 63.8498831 207.08962452 61.46606445 210.6418457 C60.72888184 211.73553467 60.72888184 211.73553467 59.97680664 212.85131836 C59.05014427 214.2306027 58.12973146 215.61411629 57.21704102 217.00268555 C56.7990625 217.62353027 56.38108398 218.244375 55.95043945 218.8840332 C55.41302124 219.69578003 55.41302124 219.69578003 54.86474609 220.52392578 C52.19148983 223.71009338 50.2769139 225.91055673 45.96492004 226.54914856 C42.73072731 226.7078273 39.52051693 226.73113064 36.2824707 226.70825195 C35.09807404 226.71207886 33.91367737 226.71590576 32.69338989 226.71984863 C30.1936152 226.72256737 27.69381204 226.71520902 25.1940918 226.69848633 C21.35962907 226.67704024 17.52703214 226.69831097 13.69262695 226.72387695 C11.26423739 226.72123442 8.83584899 226.71611098 6.4074707 226.70825195 C5.25745575 226.71634888 4.1074408 226.7244458 2.9225769 226.73278809 C1.32544357 226.71387512 1.32544357 226.71387512 -0.30395508 226.69458008 C-1.71029709 226.68980652 -1.71029709 226.68980652 -3.14505005 226.68493652 C-5.5222168 226.17700195 -5.5222168 226.17700195 -7.31393433 224.34387207 C-9.18195237 220.99386693 -9.07113542 218.97660888 -8.5222168 215.17700195 C-6.90117474 211.94243309 -4.84230732 209.09246476 -2.7097168 206.17700195 C-1.82328491 204.9252417 -1.82328491 204.9252417 -0.91894531 203.64819336 C0.86189444 201.14416389 2.66532987 198.65821606 4.4777832 196.17700195 C4.97342773 195.49476563 5.46907227 194.8125293 5.97973633 194.10961914 C8.21375299 191.03823899 10.46365897 187.97913608 12.72387695 184.92700195 C15.73928704 180.84125712 18.67665375 176.70198961 21.6027832 172.55200195 C22.0572583 171.9079541 22.5117334 171.26390625 22.97998047 170.6003418 C23.92612391 169.25549636 24.85455828 167.898067 25.76757812 166.53051758 C27.4777832 164.17700195 27.4777832 164.17700195 30.02587891 161.40161133 C34.83225134 155.96360643 34.83225134 155.96360643 36.49316406 149.10906982 C35.64810994 143.45685494 33.50036062 138.21653115 31.4152832 132.92700195 C30.84139348 131.34957592 30.27299245 129.77014179 29.71020508 128.1887207 C28.57791162 125.03619879 27.41395196 121.89858747 26.21899414 118.76928711 C24.55611563 114.4092504 22.97364102 110.02478561 21.42700195 105.62231445 C21.18289078 104.92772125 20.9387796 104.23312805 20.68727112 103.51748657 C17.8657226 95.46057248 15.10812139 87.38173865 12.3527832 79.30200195 C11.50515562 76.81947544 10.65722197 74.33705363 9.80924988 71.85464478 C9.23120617 70.16243568 8.65325419 68.47019525 8.07539368 66.77792358 C6.09061412 60.96659404 4.10045443 55.15712951 2.10668945 49.34887695 C1.83618774 48.56072601 1.56568604 47.77257507 1.2869873 46.96054077 C0.24685637 43.93020924 -0.79335442 40.89990561 -1.83453369 37.86993408 C-3.40227628 33.30737928 -4.96379328 28.74274842 -6.5222168 24.17700195 C-6.92102051 23.01845703 -7.31982422 21.85991211 -7.73071289 20.66625977 C-8.09374512 19.59988281 -8.45677734 18.53350586 -8.83081055 17.43481445 C-9.14719482 16.51071777 -9.4635791 15.58662109 -9.78955078 14.63452148 C-10.82651278 11.15632771 -11.12110898 8.77035507 -10.5222168 5.17700195 C-7.34956379 1.15830814 -4.99389393 0.05943338 0 0 Z " fill="#002E86" transform="translate(954.522216796875,203.822998046875)"/>
<path d="M0 0 C0.92776245 -0.00622879 1.8555249 -0.01245758 2.81140137 -0.01887512 C3.80627563 -0.00966537 4.8011499 -0.00045563 5.82617188 0.0090332 C6.8542395 0.0085347 7.88230713 0.00803619 8.94152832 0.00752258 C11.11354507 0.00986143 13.28556461 0.01957877 15.45751953 0.03613281 C18.78247306 0.05972612 22.10662464 0.05669197 25.43164062 0.05004883 C27.54232249 0.0556257 29.65300098 0.06273564 31.76367188 0.0715332 C32.75854614 0.0706218 33.75342041 0.06971039 34.77844238 0.06877136 C35.70620483 0.07830338 36.63396729 0.08783539 37.58984375 0.09765625 C38.40384644 0.10226364 39.21784912 0.10687103 40.05651855 0.11161804 C42.51763066 0.39825231 44.16090146 1.14284765 46.29492188 2.37231445 C46.29492188 3.03231445 46.29492188 3.69231445 46.29492188 4.37231445 C46.95492188 4.37231445 47.61492187 4.37231445 48.29492188 4.37231445 C48.3507548 5.83017415 48.38850609 7.28872429 48.41992188 8.74731445 C48.443125 9.55942383 48.46632813 10.3715332 48.49023438 11.20825195 C48.32671886 13.85720328 47.96951604 16.15028661 47.42285156 18.73217773 C46.13174217 25.05425784 45.09112041 31.41082187 44.05273438 37.77856445 C43.84309052 39.05671021 43.63344666 40.33485596 43.41744995 41.6517334 C42.97429028 44.35447425 42.53233833 47.05740884 42.09130859 49.76049805 C41.53987122 53.13990408 40.98580724 56.51887259 40.43089104 59.89770889 C37.76369172 76.14437907 35.18371941 92.40272725 32.70587158 108.67944336 C31.79277027 114.66281328 30.85581409 120.64247324 29.91992188 126.62231445 C29.76884476 127.58797836 29.76884476 127.58797836 29.61471558 128.57315063 C28.84277995 133.50641397 28.06911704 138.43940528 27.29492188 143.37231445 C27.17848328 144.11455261 27.06204468 144.85679077 26.94207764 145.621521 C26.08232793 151.10123635 25.22075635 156.58066274 24.35742188 162.05981445 C24.2330777 162.84907318 24.10873352 163.63833191 23.98062134 164.45150757 C22.57039453 173.39478985 21.14395827 182.33519281 19.68554688 191.27075195 C19.55372009 192.07886826 19.42189331 192.88698456 19.28607178 193.71958923 C18.76544951 196.90939255 18.24459473 200.09915437 17.72106934 203.28848267 C16.09002668 213.22907243 14.50579657 223.16942101 13.31958008 233.17529297 C12.45651969 239.86713804 10.80699045 245.99508353 5.29492188 250.37231445 C0.65044346 252.81843217 -3.82690148 252.71116219 -8.95117188 252.7434082 C-9.83990494 252.75243668 -10.728638 252.76146515 -11.64430237 252.77076721 C-13.51942592 252.78524054 -15.39459964 252.79414918 -17.26977539 252.79785156 C-20.1299367 252.80976181 -22.98794888 252.8589859 -25.84765625 252.90942383 C-27.67381765 252.91888746 -29.49999223 252.92612278 -31.32617188 252.9309082 C-32.60142982 252.96020668 -32.60142982 252.96020668 -33.90245056 252.99009705 C-38.07353405 252.95857647 -40.89413522 252.67525416 -44.25927734 250.08129883 C-46.70507812 247.37231445 -46.70507812 247.37231445 -47.21679688 243.4699707 C-46.75337572 236.87199498 -45.59456682 230.3302786 -44.51757812 223.80981445 C-44.28897125 222.39261628 -44.06112184 220.97529575 -43.83398438 219.55786133 C-43.36245724 216.61906691 -42.88770638 213.68082074 -42.41064453 210.74291992 C-41.31162009 203.95749987 -40.26107674 197.16453447 -39.20507812 190.37231445 C-38.78761089 187.69775684 -38.36937309 185.02331988 -37.95117188 182.34887695 C-37.12990989 177.09381651 -36.30977 171.83858195 -35.49023438 166.58325195 C-33.11656699 151.36743536 -30.72579149 136.15442662 -28.32110596 120.94348145 C-25.96796844 106.05689695 -23.63619065 91.16707146 -21.31396484 76.27563477 C-20.69622822 72.3155814 -20.07775792 68.35564339 -19.45898438 64.39575195 C-19.35547668 63.73304794 -19.25196899 63.07034393 -19.14532471 62.38755798 C-18.62679945 59.06825503 -18.10727745 55.74911495 -17.58642578 52.43017578 C-16.60650302 46.18227445 -15.63525427 39.93334101 -14.69082642 33.67996216 C-14.24418369 30.72579265 -13.79316149 27.77229893 -13.34179688 24.81884766 C-13.12785271 23.41065042 -12.91605528 22.00212514 -12.70654297 20.59326172 C-12.41591988 18.63988956 -12.11730513 16.68771148 -11.81835938 14.7355957 C-11.65118408 13.62482666 -11.48400879 12.51405762 -11.31176758 11.36962891 C-10.52740426 7.49452691 -9.91336036 4.47206003 -6.92536926 1.75247192 C-4.36235629 0.15927478 -2.99170356 -0.00231333 0 0 Z " fill="#009BDE" transform="translate(1618.705078125,120.627685546875)"/>
</svg>
